<svg t="1704878623424" class="icon" viewBox="0 0 1024 1024" version="1.1" xmlns="http://www.w3.org/2000/svg" p-id="28847" width="128" height="128"><path d="M716 955H308c-94.3 0-171-76.7-171-171V240c0-94.3 76.7-171 171-171h408c94.3 0 171 76.7 171 171v544c0 94.3-76.7 171-171 171zM308 139c-55.7 0-101 45.3-101 101v544c0 55.7 45.3 101 101 101h408c55.7 0 101-45.3 101-101V240c0-55.7-45.3-101-101-101H308z" fill="#F56C6C" p-id="28848"></path><path d="M461.6 468.7l-56.3-34.3c-6.1-3.7-13.8-3.7-20 0L329 468.7c-12.8 7.8-29.2-1.4-29.2-16.4V234.5c0-10.6 8.6-19.2 19.2-19.2h152.5c10.6 0 19.2 8.6 19.2 19.2v217.9c0.1 14.9-16.3 24.1-29.1 16.3z" fill="#e6e6e6" p-id="28849"></path></svg>